<!DOCTYPE svg PUBLIC "-//W3C//DTD SVG 1.1//EN" "http://www.w3.org/Graphics/SVG/1.1/DTD/svg11.dtd">

<!-- Uploaded to: SVG Repo, www.svgrepo.com, Transformed by: SVG Repo Mixer Tools -->
<svg fill="#ffffff" width="30px" height="30px" viewBox="0 0 256 256" id="Flat" xmlns="http://www.w3.org/2000/svg">

<g id="SVGRepo_bgCarrier" stroke-width="0"/>

<g id="SVGRepo_tracerCarrier" stroke-linecap="round" stroke-linejoin="round"/>

<g id="SVGRepo_iconCarrier"> <path d="M83.37451,42.14746,28.74121,128l54.6333,85.85254a3.99986,3.99986,0,1,1-6.749,4.29492l-56-88a3.99911,3.99911,0,0,1,0-4.29492l56-88a3.99986,3.99986,0,1,1,6.749,4.29492Zm152,83.70508-56-88a3.99986,3.99986,0,1,0-6.749,4.29492L227.25879,128l-54.6333,85.85254a3.99986,3.99986,0,1,0,6.749,4.29492l56-88A3.99911,3.99911,0,0,0,235.37451,125.85254Z"/> </g>

</svg>