<!DOCTYPE svg PUBLIC "-//W3C//DTD SVG 1.1//EN" "http://www.w3.org/Graphics/SVG/1.1/DTD/svg11.dtd">

<!-- Uploaded to: SVG Repo, www.svgrepo.com, Transformed by: SVG Repo Mixer Tools -->
<svg fill="#ffffff" width="30px" height="30px" viewBox="0 0 256 256" id="Flat" xmlns="http://www.w3.org/2000/svg">

<g id="SVGRepo_bgCarrier" stroke-width="0"/>

<g id="SVGRepo_tracerCarrier" stroke-linecap="round" stroke-linejoin="round"/>

<g id="SVGRepo_iconCarrier"> <path d="M79.99316,123.99219h96a4,4,0,0,1,0,8h-96a4,4,0,1,1,0-8Zm23.99317,48.0039h-40a44,44,0,0,1,0-88h40a4,4,0,0,0,0-8h-40a52,52,0,0,0,0,104h40a4,4,0,0,0,0-8Zm88.00683-96h-40a4,4,0,0,0,0,8h40a44,44,0,0,1,0,88h-40a4,4,0,0,0,0,8h40a52,52,0,0,0,0-104Z"/> </g>

</svg>