<!DOCTYPE svg PUBLIC "-//W3C//DTD SVG 1.1//EN" "http://www.w3.org/Graphics/SVG/1.1/DTD/svg11.dtd">

<!-- Uploaded to: SVG Repo, www.svgrepo.com, Transformed by: SVG Repo Mixer Tools -->
<svg fill="#ffffff" width="30px" height="30px" viewBox="0 0 256 256" id="Flat" xmlns="http://www.w3.org/2000/svg">

<g id="SVGRepo_bgCarrier" stroke-width="0"/>

<g id="SVGRepo_tracerCarrier" stroke-linecap="round" stroke-linejoin="round"/>

<g id="SVGRepo_iconCarrier"> <path d="M210.46191,28.84717a4.00392,4.00392,0,0,0-3.43164-.728l-128,32A4.0002,4.0002,0,0,0,76,64V182.86816A31.9752,31.9752,0,1,0,84,204V115.12305l120-30v65.74511A31.9752,31.9752,0,1,0,212,172V32A4.00105,4.00105,0,0,0,210.46191,28.84717ZM52,228a24,24,0,1,1,24-24A24.0275,24.0275,0,0,1,52,228Zm128-32a24,24,0,1,1,24-24A24.0275,24.0275,0,0,1,180,196ZM84,106.877V67.12305l120-30v39.7539Z"/> </g>

</svg>